name Visual3d_SIMM_input.mot
datacolumns 42
datarows 12
range 2.590000 2.700000
endheader
time	pelvis_tx	pelvis_ty	pelvis_tz	pelvis_tilt	pelvis_list	pelvis_rotation	hip_flexion_r	hip_adduction_r	hip_rotation_r	knee_angle_r	ankle_angle_r	subtalar_angle_r	mtp_angle_r	hip_flexion_l	hip_adduction_l	hip_rotation_l	knee_angle_l	ankle_angle_l	subtalar_angle_l	mtp_angle_l	lumbar_extension	lumbar_bending	lumbar_rotation	ground_force_vx	ground_force_vy	ground_force_vz	ground_force_px	ground_force_py	ground_force_pz	ground_force_vx	ground_force_vy	ground_force_vz	ground_force_px	ground_force_py	ground_force_pz	ground_torque_x	ground_torque_y	ground_torque_z	ground_torque_x	ground_torque_y	ground_torque_z
2.590000	-0.048661	0.631763	0.155218	-11.195863	16.723755	-100.484962	26.457241	14.574860	0.402159	-71.748064	17.396164	-0.000000	0.000000	51.897048	-3.540457	14.830330	-75.220511	40.838572	-0.000000	0.000000	12.825760	15.322517	-4.315583	10.188784	126.208221	-0.419887	-0.110414	0.004454	-0.049307	-23.207258	267.310028	-7.576425	0.106521	0.004367	0.230590	0.000170	-0.256720	0.000596	0.025138	2.857694	-0.048415
2.600000	-0.049076	0.633549	0.162402	-11.971106	16.718508	-99.883568	25.932736	15.048940	0.097638	-71.220725	16.166873	-0.000000	0.000000	50.943225	-4.276083	14.931996	-74.634310	41.320011	-0.000000	0.000000	12.805611	16.148461	-4.113031	9.597144	107.368919	-3.309465	-0.113447	0.003740	-0.044921	-25.573538	275.255890	-4.783884	0.105990	0.003066	0.231402	0.000181	-0.273571	0.000636	0.028165	3.201885	-0.054246
2.610000	-0.049368	0.635202	0.169512	-12.682682	16.762222	-99.303604	25.546296	15.456105	-0.193408	-70.892876	14.984315	-0.000000	0.000000	50.051452	-4.885232	15.116392	-74.091215	41.792842	-0.000000	0.000000	12.820520	16.919048	-3.973831	9.010937	88.876877	-6.086608	-0.117300	0.003245	-0.040076	-28.019079	282.578308	-1.252788	0.105524	0.002003	0.231784	0.000174	-0.261547	0.000608	0.031721	3.606126	-0.061094
2.620000	-0.049531	0.636637	0.176527	-13.291239	16.872240	-98.770477	25.387729	15.762070	-0.469166	-70.839068	13.925384	-0.000000	0.000000	49.251900	-5.313760	15.403840	-73.624522	42.227440	-0.000000	0.000000	12.888669	17.600979	-3.935622	8.404350	71.471054	-8.442482	-0.122433	0.002917	-0.034291	-30.282553	289.028595	2.691279	0.105158	0.001232	0.231992	0.000149	-0.224673	0.000522	0.035456	4.030625	-0.068286
2.630000	-0.049577	0.637855	0.183445	-13.796981	17.044373	-98.287758	25.490531	15.962594	-0.754304	-71.067005	13.060298	-0.000000	0.000000	48.544306	-5.562206	15.798757	-73.240405	42.603049	-0.000000	0.000000	13.011632	18.197255	-4.013379	7.721441	55.768726	-10.107416	-0.129473	0.002671	-0.027072	-32.210388	294.275360	6.661393	0.104886	0.000735	0.232287	0.000112	-0.168712	0.000392	0.039027	4.436582	-0.075164
2.640000	-0.049533	0.638914	0.190271	-14.227642	17.259624	-97.849014	25.846658	16.076959	-1.084592	-71.535037	12.445168	-0.000000	0.000000	47.909228	-5.673476	16.290525	-72.930629	42.909007	-0.000000	0.000000	13.175894	18.735117	-4.202733	6.894777	42.151672	-10.870789	-0.139335	0.002418	-0.017959	-33.750351	298.011292	10.277634	0.104665	0.000454	0.232880	0.000067	-0.100360	0.000233	0.042138	4.790289	-0.081156
2.650000	-0.049439	0.639890	0.197012	-14.623090	17.493980	-97.446434	26.427286	16.135950	-1.494982	-72.173632	12.115848	-0.000000	0.000000	47.321839	-5.712787	16.857392	-72.683246	43.143552	-0.000000	0.000000	13.359812	19.251361	-4.487473	5.880804	30.717960	-10.651056	-0.153581	0.002103	-0.006423	-34.926899	300.079529	13.257927	0.104451	0.000324	0.233895	0.000017	-0.026327	0.000061	0.044587	5.068665	-0.085873
2.660000	-0.049343	0.640853	0.203672	-15.021494	17.725332	-97.074608	27.198476	16.168847	-2.013191	-72.902741	12.084394	-0.000000	0.000000	46.760588	-5.748640	17.469180	-72.487015	43.311319	-0.000000	0.000000	13.540243	19.779615	-4.845691	4.673304	21.351347	-9.556004	-0.175403	0.001721	0.008640	-35.815697	300.545532	15.469086	0.104208	0.000289	0.235345	-0.000036	0.053737	-0.000125	0.046293	5.262657	-0.089159
2.670000	-0.049291	0.641858	0.210249	-15.448748	17.935608	-96.734169	28.128925	16.194245	-2.653751	-73.645060	12.338002	-0.000000	0.000000	46.208996	-5.839513	18.087326	-72.332468	43.420909	-0.000000	0.000000	13.694285	20.340770	-5.251692	0.000000	0.000000	0.000000	0.000000	0.000000	0.000000	-36.502277	299.667511	16.915335	0.103917	0.000309	0.237159	0.000000	0.000000	0.000000	0.047279	5.374732	-0.091058
2.680000	-0.049329	0.642937	0.216734	-15.913622	18.111654	-96.434044	29.193830	16.217722	-3.413791	-74.335080	12.840156	-0.000000	0.000000	45.655809	-6.027707	18.665674	-72.211984	43.482924	-0.000000	0.000000	13.799912	20.939027	-5.676332	0.000000	0.000000	0.000000	0.000000	0.000000	0.000000	-37.047997	297.803955	17.690804	0.103581	0.000358	0.239220	0.000000	0.000000	0.000000	0.047618	5.413229	-0.091710
2.690000	-0.049504	0.644100	0.223113	-16.409082	18.245047	-96.189102	30.375330	16.234178	-4.273990	-74.923815	13.535034	-0.000000	0.000000	45.094278	-6.337222	19.155453	-72.120008	43.508247	-0.000000	0.000000	13.837110	21.563752	-6.090224	0.000000	0.000000	0.000000	0.000000	0.000000	0.000000	-37.478523	295.299042	17.919470	0.103218	0.000424	0.241413	0.000000	0.000000	0.000000	0.047401	5.388657	-0.091294
2.700000	-0.049851	0.645343	0.229373	-16.915548	18.328671	-96.014908	31.658108	16.229487	-5.203651	-75.380099	14.355905	-0.000000	0.000000	44.517619	-6.771384	19.512396	-72.052308	43.506235	-0.000000	0.000000	13.787510	22.192989	-6.468946	0.000000	0.000000	0.000000	0.000000	0.000000	0.000000	-37.793129	292.428802	17.705414	0.102851	0.000500	0.243652	0.000000	0.000000	0.000000	0.046717	5.310891	-0.089976
